<svg width="861" height="496" viewBox="0 0 861 496" fill="none" xmlns="http://www.w3.org/2000/svg">
<path d="M317.183 142.775L352.447 12.7188C354.18 6.32968 349.338 0.0508036 342.718 0.102084L231.813 0.96124H168.807H136.587H112.878C108.858 0.96124 105.229 3.36825 103.665 7.07151L90.4168 38.4496L70.2173 80.7442L31.7421 164.372L19.2376 198.016L8.65693 235.504L3.06239 257.867C2.94471 258.338 2.86141 258.816 2.81313 259.298L0.961881 277.798L0 308.558L1.86884 338.44C1.90538 339.024 1.99317 339.604 2.1312 340.173L9.43332 370.274C9.55679 370.783 9.72005 371.282 9.9216 371.765L19.2376 394.109L31.9709 416.831C32.4569 417.699 33.0695 418.489 33.7884 419.175L75.3186 458.833C75.7643 459.259 76.2484 459.642 76.7647 459.979L97.4418 473.455C97.8878 473.745 98.3562 474 98.8428 474.216L122.969 484.932C123.709 485.26 124.485 485.498 125.282 485.639L182.743 495.827C183.392 495.942 184.051 495.993 184.711 495.978L226.126 495.058C226.71 495.045 227.292 494.981 227.864 494.867L268.872 486.671C269.811 486.483 270.719 486.161 271.567 485.715L323.724 458.282C324.646 457.797 325.487 457.171 326.215 456.427L367.421 414.333C368.071 413.67 368.625 412.919 369.067 412.103L380.905 390.264L391.801 365.763C392.229 364.8 392.503 363.776 392.611 362.729L398.219 308.558V280.953C398.219 280.135 398.118 279.32 397.92 278.526L391.485 252.806L382.173 225.817C381.969 225.227 381.711 224.657 381.401 224.115L366.993 198.92C366.65 198.318 366.245 197.755 365.784 197.237L343.9 172.634C343.561 172.253 343.194 171.899 342.801 171.574L320.461 153.098C317.438 150.598 316.156 146.561 317.183 142.775Z" fill="#FF5B00" fill-opacity="0.7"/>
<path d="M779.964 142.775L815.228 12.7188C816.961 6.32968 812.119 0.0508036 805.499 0.102084L694.594 0.96124H631.589H599.368H575.659C571.639 0.96124 568.01 3.36825 566.447 7.07151L553.198 38.4496L532.999 80.7442L494.523 164.372L482.019 198.016L471.438 235.504L465.844 257.867C465.726 258.338 465.643 258.816 465.594 259.298L463.743 277.798L462.781 308.558L464.65 338.44C464.687 339.024 464.774 339.604 464.912 340.173L472.215 370.274C472.338 370.783 472.501 371.282 472.703 371.765L482.019 394.109L494.752 416.831C495.238 417.699 495.851 418.489 496.57 419.175L538.1 458.833C538.546 459.259 539.03 459.642 539.546 459.979L560.223 473.455C560.669 473.745 561.137 474 561.624 474.216L585.75 484.932C586.49 485.26 587.267 485.498 588.064 485.639L645.524 495.827C646.173 495.942 646.833 495.993 647.492 495.978L688.908 495.058C689.492 495.045 690.073 494.981 690.646 494.867L731.653 486.671C732.593 486.483 733.5 486.161 734.348 485.715L786.506 458.282C787.427 457.797 788.268 457.171 788.997 456.427L830.203 414.333C830.852 413.67 831.406 412.919 831.848 412.103L843.686 390.264L854.583 365.763C855.01 364.8 855.284 363.776 855.392 362.729L861 308.558V280.953C861 280.135 860.899 279.32 860.701 278.526L854.267 252.806L844.954 225.817C844.75 225.227 844.492 224.657 844.182 224.115L829.775 198.92C829.431 198.318 829.026 197.755 828.566 197.237L806.681 172.634C806.343 172.253 805.975 171.899 805.583 171.574L783.242 153.098C780.219 150.598 778.937 146.561 779.964 142.775Z" fill="#FF5B00" fill-opacity="0.7"/>
</svg>
